# xmcd
#
# Track frame offsets:
#	150
#	6330
#	11731
#	31144
#	49372
#	61562
#	78216
#	91994
#	109622
#	123958
#	135258
#	144783
#	154836
#	171044
#	187264
#	198551
#	211161
#	225181
#	240714
#	256667
#	271066
#	282976
#	292159
#	298809
#	312339
#	324103
#	340547
#
# Disc length: 4767
#
# Revision: 1
# Processed by: cddbd v1.5.1PL0 Copyright (c) Steve Scherf et al.
# Submitted via: audiograbber 1.82.02
# Normalized: r0:DSETVAR1
#
DISCID=6e129d1b
DTITLE=Various Artist - DJ 4our 5ive - Gangsta Music Pt. 3
DYEAR=2003
DGENRE=Hip-Hop
TTITLE0=Trav - Intro
TTITLE1=Q.Blitz - Freestyle
TTITLE2=Memphis Bleek, Trick Daddy and T.I. - Round Here
TTITLE3=Juvenile - In My Life
TTITLE4=David Banner, Lil Flip, Young Wun and DMX - Tear It Up
TTITLE5=Tupac Feat. Eminem and The Outlawz - One Day At A Time
TTITLE6=G-Unit Feat. Lloyd Banks - Smile
TTITLE7=Skyzoo - Hollywood
TTITLE8=Jay-Z - Lucifer
TTITLE9=Freeway - Stick To My Gunz
TTITLE10=Freeway and Oschino - Cheek
TTITLE11=Sheek and J Hood - Freestyle
TTITLE12=Fabolous - Niggaz
TTITLE13=G-Unit - The Grind
TTITLE14=Bunky S.A. - Front 101
TTITLE15=Fabolous - Think Y'all Know
TTITLE16=Ghostface Feat. Jadakiss - Run
TTITLE17=Cahsmere - They Ain't Ready
TTITLE18=Jae Millz - Hip Hop Is Back
TTITLE19=Jay-Z - 99 Problems
TTITLE20=Obie Trice Feat. Nate Dogg - The Set Up
TTITLE21=Reeks - Sicamore Freestyle
TTITLE22=Clinton Sparks Feat. Joe Budden - 5 Alarm Blaze
TTITLE23=Jadakiss and Sheek - (J-A-D-A S-H-E-E-K)
TTITLE24=G-Unit - Beg For Mercy
TTITLE25=G-Unit - My Buddy
TTITLE26=Maino - Pimpin Ain't Easy
EXTD=
EXTT0=
EXTT1=
EXTT2=
EXTT3=
EXTT4=
EXTT5=
EXTT6=
EXTT7=
EXTT8=
EXTT9=
EXTT10=
EXTT11=
EXTT12=
EXTT13=
EXTT14=
EXTT15=
EXTT16=
EXTT17=
EXTT18=
EXTT19=
EXTT20=
EXTT21=
EXTT22=
EXTT23=
EXTT24=
EXTT25=
EXTT26=
PLAYORDER=
